solid MotorShaft_Default_sldprt
   facet normal 9.995998e-001 2.829130e-002 0.000000e+000
      outer loop
         vertex 3.163562e+000 2.692588e-001 4.850000e+001
         vertex 3.175000e+000 1.166476e-015 4.850000e+001
         vertex 3.175000e+000 3.888253e-016 -4.850000e+001
      endloop
   endfacet
   facet normal 9.995998e-001 -2.829130e-002 0.000000e+000
      outer loop
         vertex 3.175000e+000 3.888253e-016 -4.850000e+001
         vertex 3.175000e+000 1.166476e-015 4.850000e+001
         vertex 3.163562e+000 -2.692588e-001 -4.850000e+001
      endloop
   endfacet
   facet normal 9.983979e-001 -5.658260e-002 0.000000e+000
      outer loop
         vertex 3.175000e+000 1.166476e-015 4.850000e+001
         vertex 3.163562e+000 -2.692588e-001 4.850000e+001
         vertex 3.163562e+000 -2.692588e-001 -4.850000e+001
      endloop
   endfacet
   facet normal 9.900123e-001 -1.409813e-001 0.000000e+000
      outer loop
         vertex 3.163562e+000 -2.692588e-001 -4.850000e+001
         vertex 3.163562e+000 -2.692588e-001 4.850000e+001
         vertex 3.072552e+000 -8.000304e-001 4.850000e+001
      endloop
   endfacet
   facet normal 9.804267e-001 -1.968844e-001 0.000000e+000
      outer loop
         vertex 3.163562e+000 -2.692588e-001 -4.850000e+001
         vertex 3.072552e+000 -8.000304e-001 4.850000e+001
         vertex 3.072552e+000 -8.000304e-001 -4.850000e+001
      endloop
   endfacet
   facet normal 9.519458e-001 -3.062663e-001 0.000000e+000
      outer loop
         vertex 3.072552e+000 -8.000304e-001 -4.850000e+001
         vertex 3.072552e+000 -8.000304e-001 4.850000e+001
         vertex 2.893151e+000 -1.307786e+000 4.850000e+001
      endloop
   endfacet
   facet normal 9.330506e-001 -3.597453e-001 0.000000e+000
      outer loop
         vertex 3.072552e+000 -8.000304e-001 -4.850000e+001
         vertex 2.893151e+000 -1.307786e+000 4.850000e+001
         vertex 2.893151e+000 -1.307786e+000 -4.850000e+001
      endloop
   endfacet
   facet normal 8.864937e-001 -4.627406e-001 0.000000e+000
      outer loop
         vertex 2.893151e+000 -1.307786e+000 -4.850000e+001
         vertex 2.893151e+000 -1.307786e+000 4.850000e+001
         vertex 2.630518e+000 -1.777920e+000 4.850000e+001
      endloop
   endfacet
   facet normal 8.588322e-001 -5.122570e-001 0.000000e+000
      outer loop
         vertex 2.893151e+000 -1.307786e+000 -4.850000e+001
         vertex 2.630518e+000 -1.777920e+000 4.850000e+001
         vertex 2.630518e+000 -1.777920e+000 -4.850000e+001
      endloop
   endfacet
   facet normal 7.955388e-001 -6.059027e-001 0.000000e+000
      outer loop
         vertex 2.630518e+000 -1.777920e+000 -4.850000e+001
         vertex 2.630518e+000 -1.777920e+000 4.850000e+001
         vertex 2.292211e+000 -2.196906e+000 4.850000e+001
      endloop
   endfacet
   facet normal 7.599069e-001 -6.500320e-001 0.000000e+000
      outer loop
         vertex 2.630518e+000 -1.777920e+000 -4.850000e+001
         vertex 2.292211e+000 -2.196906e+000 4.850000e+001
         vertex 2.292211e+000 -2.196906e+000 -4.850000e+001
      endloop
   endfacet
   facet normal 6.816977e-001 -7.316340e-001 0.000000e+000
      outer loop
         vertex 2.292211e+000 -2.196906e+000 -4.850000e+001
         vertex 2.292211e+000 -2.196906e+000 4.850000e+001
         vertex 1.887960e+000 -2.552691e+000 4.850000e+001
      endloop
   endfacet
   facet normal 6.391203e-001 -7.691067e-001 0.000000e+000
      outer loop
         vertex 2.292211e+000 -2.196906e+000 -4.850000e+001
         vertex 1.887960e+000 -2.552691e+000 4.850000e+001
         vertex 1.887960e+000 -2.552691e+000 -4.850000e+001
      endloop
   endfacet
   facet normal 5.482453e-001 -8.363176e-001 0.000000e+000
      outer loop
         vertex 1.887960e+000 -2.552691e+000 -4.850000e+001
         vertex 1.887960e+000 -2.552691e+000 4.850000e+001
         vertex 1.429397e+000 -2.835040e+000 4.850000e+001
      endloop
   endfacet
   facet normal 4.999475e-001 -8.660557e-001 0.000000e+000
      outer loop
         vertex 1.887960e+000 -2.552691e+000 -4.850000e+001
         vertex 1.429397e+000 -2.835040e+000 4.850000e+001
         vertex 1.429397e+000 -2.835040e+000 -4.850000e+001
      endloop
   endfacet
   facet normal 3.990209e-001 -9.169418e-001 0.000000e+000
      outer loop
         vertex 1.429397e+000 -2.835040e+000 -4.850000e+001
         vertex 1.429397e+000 -2.835040e+000 4.850000e+001
         vertex 9.297123e-001 -3.035829e+000 4.850000e+001
      endloop
   endfacet
   facet normal 3.463921e-001 -9.380898e-001 0.000000e+000
      outer loop
         vertex 1.429397e+000 -2.835040e+000 -4.850000e+001
         vertex 9.297123e-001 -3.035829e+000 4.850000e+001
         vertex 9.297123e-001 -3.035829e+000 -4.850000e+001
      endloop
   endfacet
   facet normal 2.383175e-001 -9.711873e-001 0.000000e+000
      outer loop
         vertex 9.297123e-001 -3.035829e+000 -4.850000e+001
         vertex 9.297123e-001 -3.035829e+000 4.850000e+001
         vertex 4.032816e-001 -3.149284e+000 4.850000e+001
      endloop
   endfacet
   facet normal 1.828716e-001 -9.831368e-001 0.000000e+000
      outer loop
         vertex 9.297123e-001 -3.035829e+000 -4.850000e+001
         vertex 4.032816e-001 -3.149284e+000 4.850000e+001
         vertex 4.032816e-001 -3.149284e+000 -4.850000e+001
      endloop
   endfacet
   facet normal 7.075802e-002 -9.974935e-001 0.000000e+000
      outer loop
         vertex 4.032816e-001 -3.149284e+000 -4.850000e+001
         vertex 4.032816e-001 -3.149284e+000 4.850000e+001
         vertex -1.347508e-001 -3.172139e+000 4.850000e+001
      endloop
   endfacet
   facet normal 1.409025e-002 -9.999007e-001 0.000000e+000
      outer loop
         vertex 4.032816e-001 -3.149284e+000 -4.850000e+001
         vertex -1.347508e-001 -3.172139e+000 4.850000e+001
         vertex -1.347508e-001 -3.172139e+000 -4.850000e+001
      endloop
   endfacet
   facet normal -9.883699e-002 -9.951036e-001 0.000000e+000
      outer loop
         vertex -1.347508e-001 -3.172139e+000 -4.850000e+001
         vertex -1.347508e-001 -3.172139e+000 4.850000e+001
         vertex -6.689067e-001 -3.103738e+000 4.850000e+001
      endloop
   endfacet
   facet normal -1.550965e-001 -9.878993e-001 0.000000e+000
      outer loop
         vertex -1.347508e-001 -3.172139e+000 -4.850000e+001
         vertex -6.689067e-001 -3.103738e+000 4.850000e+001
         vertex -6.689067e-001 -3.103738e+000 -4.850000e+001
      endloop
   endfacet
   facet normal -2.655886e-001 -9.640865e-001 0.000000e+000
      outer loop
         vertex -6.689067e-001 -3.103738e+000 -4.850000e+001
         vertex -6.689067e-001 -3.103738e+000 4.850000e+001
         vertex -1.183819e+000 -2.946048e+000 4.850000e+001
      endloop
   endfacet
   facet normal -3.198213e-001 -9.474779e-001 0.000000e+000
      outer loop
         vertex -6.689067e-001 -3.103738e+000 -4.850000e+001
         vertex -1.183819e+000 -2.946048e+000 4.850000e+001
         vertex -1.183819e+000 -2.946048e+000 -4.850000e+001
      endloop
   endfacet
   facet normal -4.246998e-001 -9.053342e-001 0.000000e+000
      outer loop
         vertex -1.183819e+000 -2.946048e+000 -4.850000e+001
         vertex -1.183819e+000 -2.946048e+000 4.850000e+001
         vertex -1.664676e+000 -2.703605e+000 4.850000e+001
      endloop
   endfacet
   facet normal -4.753455e-001 -8.797992e-001 0.000000e+000
      outer loop
         vertex -1.183819e+000 -2.946048e+000 -4.850000e+001
         vertex -1.664676e+000 -2.703605e+000 4.850000e+001
         vertex -1.664676e+000 -2.703605e+000 -4.850000e+001
      endloop
   endfacet
   facet normal -5.715931e-001 -8.205372e-001 0.000000e+000
      outer loop
         vertex -1.664676e+000 -2.703605e+000 -4.850000e+001
         vertex -1.664676e+000 -2.703605e+000 4.850000e+001
         vertex -2.097642e+000 -2.383385e+000 4.850000e+001
      endloop
   endfacet
   facet normal -6.171949e-001 -7.868103e-001 0.000000e+000
      outer loop
         vertex -1.664676e+000 -2.703605e+000 -4.850000e+001
         vertex -2.097642e+000 -2.383385e+000 4.850000e+001
         vertex -2.097642e+000 -2.383385e+000 -4.850000e+001
      endloop
   endfacet
   facet normal -7.020428e-001 -7.121348e-001 0.000000e+000
      outer loop
         vertex -2.097642e+000 -2.383385e+000 -4.850000e+001
         vertex -2.097642e+000 -2.383385e+000 4.850000e+001
         vertex -2.470263e+000 -1.994598e+000 4.850000e+001
      endloop
   endfacet
   facet normal -7.412888e-001 -6.711863e-001 0.000000e+000
      outer loop
         vertex -2.097642e+000 -2.383385e+000 -4.850000e+001
         vertex -2.470263e+000 -1.994598e+000 4.850000e+001
         vertex -2.470263e+000 -1.994598e+000 -4.850000e+001
      endloop
   endfacet
   facet normal -8.122959e-001 -5.832456e-001 0.000000e+000
      outer loop
         vertex -2.470263e+000 -1.994598e+000 -4.850000e+001
         vertex -2.470263e+000 -1.994598e+000 4.850000e+001
         vertex -2.771820e+000 -1.548432e+000 4.850000e+001
      endloop
   endfacet
   facet normal -8.440570e-001 -5.362535e-001 0.000000e+000
      outer loop
         vertex -2.470263e+000 -1.994598e+000 -4.850000e+001
         vertex -2.771820e+000 -1.548432e+000 4.850000e+001
         vertex -2.771820e+000 -1.548432e+000 -4.850000e+001
      endloop
   endfacet
   facet normal -8.991807e-001 -4.375775e-001 0.000000e+000
      outer loop
         vertex -2.771820e+000 -1.548432e+000 -4.850000e+001
         vertex -2.771820e+000 -1.548432e+000 4.850000e+001
         vertex -2.993636e+000 -1.057719e+000 4.850000e+001
      endloop
   endfacet
   facet normal -9.225433e-001 -3.858936e-001 0.000000e+000
      outer loop
         vertex -2.771820e+000 -1.548432e+000 -4.850000e+001
         vertex -2.993636e+000 -1.057719e+000 4.850000e+001
         vertex -2.993636e+000 -1.057719e+000 -4.850000e+001
      endloop
   endfacet
   facet normal -9.601977e-001 -2.793211e-001 0.000000e+000
      outer loop
         vertex -2.993636e+000 -1.057719e+000 -4.850000e+001
         vertex -2.993636e+000 -1.057719e+000 4.850000e+001
         vertex -3.129330e+000 -5.365776e-001 4.850000e+001
      endloop
   endfacet
   facet normal -9.744897e-001 -2.244324e-001 0.000000e+000
      outer loop
         vertex -2.993636e+000 -1.057719e+000 -4.850000e+001
         vertex -3.129330e+000 -5.365776e-001 4.850000e+001
         vertex -3.129330e+000 -5.365776e-001 -4.850000e+001
      endloop
   endfacet
   facet normal -9.935917e-001 -1.130291e-001 0.000000e+000
      outer loop
         vertex -3.129330e+000 -5.365776e-001 -4.850000e+001
         vertex -3.129330e+000 -5.365776e-001 4.850000e+001
         vertex -3.175000e+000 0.000000e+000 4.850000e+001
      endloop
   endfacet
   facet normal -9.984018e-001 -5.651454e-002 0.000000e+000
      outer loop
         vertex -3.129330e+000 -5.365776e-001 -4.850000e+001
         vertex -3.175000e+000 0.000000e+000 4.850000e+001
         vertex -3.175000e+000 0.000000e+000 -4.850000e+001
      endloop
   endfacet
   facet normal -9.984018e-001 5.651454e-002 0.000000e+000
      outer loop
         vertex -3.175000e+000 0.000000e+000 -4.850000e+001
         vertex -3.175000e+000 0.000000e+000 4.850000e+001
         vertex -3.129330e+000 5.365776e-001 4.850000e+001
      endloop
   endfacet
   facet normal -9.935917e-001 1.130291e-001 0.000000e+000
      outer loop
         vertex -3.175000e+000 0.000000e+000 -4.850000e+001
         vertex -3.129330e+000 5.365776e-001 4.850000e+001
         vertex -3.129330e+000 5.365776e-001 -4.850000e+001
      endloop
   endfacet
   facet normal -9.744897e-001 2.244324e-001 0.000000e+000
      outer loop
         vertex -3.129330e+000 5.365776e-001 -4.850000e+001
         vertex -3.129330e+000 5.365776e-001 4.850000e+001
         vertex -2.993636e+000 1.057719e+000 4.850000e+001
      endloop
   endfacet
   facet normal -9.601977e-001 2.793211e-001 0.000000e+000
      outer loop
         vertex -3.129330e+000 5.365776e-001 -4.850000e+001
         vertex -2.993636e+000 1.057719e+000 4.850000e+001
         vertex -2.993636e+000 1.057719e+000 -4.850000e+001
      endloop
   endfacet
   facet normal -9.225433e-001 3.858936e-001 0.000000e+000
      outer loop
         vertex -2.993636e+000 1.057719e+000 -4.850000e+001
         vertex -2.993636e+000 1.057719e+000 4.850000e+001
         vertex -2.771820e+000 1.548432e+000 4.850000e+001
      endloop
   endfacet
   facet normal -8.991807e-001 4.375775e-001 0.000000e+000
      outer loop
         vertex -2.993636e+000 1.057719e+000 -4.850000e+001
         vertex -2.771820e+000 1.548432e+000 4.850000e+001
         vertex -2.771820e+000 1.548432e+000 -4.850000e+001
      endloop
   endfacet
   facet normal -8.440570e-001 5.362535e-001 0.000000e+000
      outer loop
         vertex -2.771820e+000 1.548432e+000 -4.850000e+001
         vertex -2.771820e+000 1.548432e+000 4.850000e+001
         vertex -2.470263e+000 1.994598e+000 4.850000e+001
      endloop
   endfacet
   facet normal -8.122959e-001 5.832456e-001 0.000000e+000
      outer loop
         vertex -2.771820e+000 1.548432e+000 -4.850000e+001
         vertex -2.470263e+000 1.994598e+000 4.850000e+001
         vertex -2.470263e+000 1.994598e+000 -4.850000e+001
      endloop
   endfacet
   facet normal -7.412888e-001 6.711863e-001 0.000000e+000
      outer loop
         vertex -2.470263e+000 1.994598e+000 -4.850000e+001
         vertex -2.470263e+000 1.994598e+000 4.850000e+001
         vertex -2.097642e+000 2.383385e+000 4.850000e+001
      endloop
   endfacet
   facet normal -7.020428e-001 7.121348e-001 0.000000e+000
      outer loop
         vertex -2.470263e+000 1.994598e+000 -4.850000e+001
         vertex -2.097642e+000 2.383385e+000 4.850000e+001
         vertex -2.097642e+000 2.383385e+000 -4.850000e+001
      endloop
   endfacet
   facet normal -6.171949e-001 7.868103e-001 0.000000e+000
      outer loop
         vertex -2.097642e+000 2.383385e+000 -4.850000e+001
         vertex -2.097642e+000 2.383385e+000 4.850000e+001
         vertex -1.664676e+000 2.703605e+000 4.850000e+001
      endloop
   endfacet
   facet normal -5.715931e-001 8.205372e-001 0.000000e+000
      outer loop
         vertex -2.097642e+000 2.383385e+000 -4.850000e+001
         vertex -1.664676e+000 2.703605e+000 4.850000e+001
         vertex -1.664676e+000 2.703605e+000 -4.850000e+001
      endloop
   endfacet
   facet normal -4.753455e-001 8.797992e-001 0.000000e+000
      outer loop
         vertex -1.664676e+000 2.703605e+000 -4.850000e+001
         vertex -1.664676e+000 2.703605e+000 4.850000e+001
         vertex -1.183819e+000 2.946048e+000 4.850000e+001
      endloop
   endfacet
   facet normal -4.246998e-001 9.053342e-001 0.000000e+000
      outer loop
         vertex -1.664676e+000 2.703605e+000 -4.850000e+001
         vertex -1.183819e+000 2.946048e+000 4.850000e+001
         vertex -1.183819e+000 2.946048e+000 -4.850000e+001
      endloop
   endfacet
   facet normal -3.198213e-001 9.474779e-001 0.000000e+000
      outer loop
         vertex -1.183819e+000 2.946048e+000 -4.850000e+001
         vertex -1.183819e+000 2.946048e+000 4.850000e+001
         vertex -6.689067e-001 3.103738e+000 4.850000e+001
      endloop
   endfacet
   facet normal -2.655886e-001 9.640865e-001 0.000000e+000
      outer loop
         vertex -1.183819e+000 2.946048e+000 -4.850000e+001
         vertex -6.689067e-001 3.103738e+000 4.850000e+001
         vertex -6.689067e-001 3.103738e+000 -4.850000e+001
      endloop
   endfacet
   facet normal -1.550965e-001 9.878993e-001 0.000000e+000
      outer loop
         vertex -6.689067e-001 3.103738e+000 -4.850000e+001
         vertex -6.689067e-001 3.103738e+000 4.850000e+001
         vertex -1.347508e-001 3.172139e+000 4.850000e+001
      endloop
   endfacet
   facet normal -9.883699e-002 9.951036e-001 0.000000e+000
      outer loop
         vertex -6.689067e-001 3.103738e+000 -4.850000e+001
         vertex -1.347508e-001 3.172139e+000 4.850000e+001
         vertex -1.347508e-001 3.172139e+000 -4.850000e+001
      endloop
   endfacet
   facet normal 1.409025e-002 9.999007e-001 0.000000e+000
      outer loop
         vertex -1.347508e-001 3.172139e+000 -4.850000e+001
         vertex -1.347508e-001 3.172139e+000 4.850000e+001
         vertex 4.032816e-001 3.149284e+000 4.850000e+001
      endloop
   endfacet
   facet normal 7.075802e-002 9.974935e-001 0.000000e+000
      outer loop
         vertex -1.347508e-001 3.172139e+000 -4.850000e+001
         vertex 4.032816e-001 3.149284e+000 4.850000e+001
         vertex 4.032816e-001 3.149284e+000 -4.850000e+001
      endloop
   endfacet
   facet normal 1.828716e-001 9.831368e-001 0.000000e+000
      outer loop
         vertex 4.032816e-001 3.149284e+000 -4.850000e+001
         vertex 4.032816e-001 3.149284e+000 4.850000e+001
         vertex 9.297123e-001 3.035829e+000 4.850000e+001
      endloop
   endfacet
   facet normal 2.383175e-001 9.711873e-001 0.000000e+000
      outer loop
         vertex 4.032816e-001 3.149284e+000 -4.850000e+001
         vertex 9.297123e-001 3.035829e+000 4.850000e+001
         vertex 9.297123e-001 3.035829e+000 -4.850000e+001
      endloop
   endfacet
   facet normal 3.463921e-001 9.380898e-001 0.000000e+000
      outer loop
         vertex 9.297123e-001 3.035829e+000 -4.850000e+001
         vertex 9.297123e-001 3.035829e+000 4.850000e+001
         vertex 1.429397e+000 2.835040e+000 4.850000e+001
      endloop
   endfacet
   facet normal 3.990209e-001 9.169418e-001 0.000000e+000
      outer loop
         vertex 9.297123e-001 3.035829e+000 -4.850000e+001
         vertex 1.429397e+000 2.835040e+000 4.850000e+001
         vertex 1.429397e+000 2.835040e+000 -4.850000e+001
      endloop
   endfacet
   facet normal 4.999475e-001 8.660557e-001 0.000000e+000
      outer loop
         vertex 1.429397e+000 2.835040e+000 -4.850000e+001
         vertex 1.429397e+000 2.835040e+000 4.850000e+001
         vertex 1.887960e+000 2.552691e+000 4.850000e+001
      endloop
   endfacet
   facet normal 5.482453e-001 8.363176e-001 0.000000e+000
      outer loop
         vertex 1.429397e+000 2.835040e+000 -4.850000e+001
         vertex 1.887960e+000 2.552691e+000 4.850000e+001
         vertex 1.887960e+000 2.552691e+000 -4.850000e+001
      endloop
   endfacet
   facet normal 6.391203e-001 7.691067e-001 0.000000e+000
      outer loop
         vertex 1.887960e+000 2.552691e+000 -4.850000e+001
         vertex 1.887960e+000 2.552691e+000 4.850000e+001
         vertex 2.292211e+000 2.196906e+000 4.850000e+001
      endloop
   endfacet
   facet normal 6.816977e-001 7.316340e-001 0.000000e+000
      outer loop
         vertex 1.887960e+000 2.552691e+000 -4.850000e+001
         vertex 2.292211e+000 2.196906e+000 4.850000e+001
         vertex 2.292211e+000 2.196906e+000 -4.850000e+001
      endloop
   endfacet
   facet normal 7.599069e-001 6.500320e-001 0.000000e+000
      outer loop
         vertex 2.292211e+000 2.196906e+000 -4.850000e+001
         vertex 2.292211e+000 2.196906e+000 4.850000e+001
         vertex 2.630518e+000 1.777920e+000 4.850000e+001
      endloop
   endfacet
   facet normal 7.955388e-001 6.059027e-001 0.000000e+000
      outer loop
         vertex 2.292211e+000 2.196906e+000 -4.850000e+001
         vertex 2.630518e+000 1.777920e+000 4.850000e+001
         vertex 2.630518e+000 1.777920e+000 -4.850000e+001
      endloop
   endfacet
   facet normal 8.588322e-001 5.122570e-001 0.000000e+000
      outer loop
         vertex 2.630518e+000 1.777920e+000 -4.850000e+001
         vertex 2.630518e+000 1.777920e+000 4.850000e+001
         vertex 2.893151e+000 1.307786e+000 4.850000e+001
      endloop
   endfacet
   facet normal 8.864937e-001 4.627406e-001 0.000000e+000
      outer loop
         vertex 2.630518e+000 1.777920e+000 -4.850000e+001
         vertex 2.893151e+000 1.307786e+000 4.850000e+001
         vertex 2.893151e+000 1.307786e+000 -4.850000e+001
      endloop
   endfacet
   facet normal 9.330506e-001 3.597453e-001 0.000000e+000
      outer loop
         vertex 2.893151e+000 1.307786e+000 -4.850000e+001
         vertex 2.893151e+000 1.307786e+000 4.850000e+001
         vertex 3.072552e+000 8.000304e-001 4.850000e+001
      endloop
   endfacet
   facet normal 9.519458e-001 3.062663e-001 0.000000e+000
      outer loop
         vertex 2.893151e+000 1.307786e+000 -4.850000e+001
         vertex 3.072552e+000 8.000304e-001 4.850000e+001
         vertex 3.072552e+000 8.000304e-001 -4.850000e+001
      endloop
   endfacet
   facet normal 9.804267e-001 1.968844e-001 0.000000e+000
      outer loop
         vertex 3.072552e+000 8.000304e-001 -4.850000e+001
         vertex 3.072552e+000 8.000304e-001 4.850000e+001
         vertex 3.163562e+000 2.692588e-001 4.850000e+001
      endloop
   endfacet
   facet normal 9.900123e-001 1.409813e-001 0.000000e+000
      outer loop
         vertex 3.072552e+000 8.000304e-001 -4.850000e+001
         vertex 3.163562e+000 2.692588e-001 4.850000e+001
         vertex 3.163562e+000 2.692588e-001 -4.850000e+001
      endloop
   endfacet
   facet normal 9.983979e-001 5.658260e-002 0.000000e+000
      outer loop
         vertex 3.163562e+000 2.692588e-001 -4.850000e+001
         vertex 3.163562e+000 2.692588e-001 4.850000e+001
         vertex 3.175000e+000 3.888253e-016 -4.850000e+001
      endloop
   endfacet
   facet normal 0.000000e+000 0.000000e+000 1.000000e+000
      outer loop
         vertex 3.175000e+000 3.888253e-016 4.850000e+001
         vertex 3.163562e+000 2.692588e-001 4.850000e+001
         vertex 0.000000e+000 0.000000e+000 4.850000e+001
      endloop
   endfacet
   facet normal 0.000000e+000 0.000000e+000 1.000000e+000
      outer loop
         vertex 3.175000e+000 3.888253e-016 4.850000e+001
         vertex 0.000000e+000 0.000000e+000 4.850000e+001
         vertex 3.163562e+000 -2.692588e-001 4.850000e+001
      endloop
   endfacet
   facet normal 0.000000e+000 0.000000e+000 1.000000e+000
      outer loop
         vertex 2.630518e+000 -1.777920e+000 4.850000e+001
         vertex 2.893151e+000 -1.307786e+000 4.850000e+001
         vertex 0.000000e+000 0.000000e+000 4.850000e+001
      endloop
   endfacet
   facet normal 0.000000e+000 0.000000e+000 1.000000e+000
      outer loop
         vertex 0.000000e+000 0.000000e+000 4.850000e+001
         vertex 2.893151e+000 -1.307786e+000 4.850000e+001
         vertex 3.072552e+000 -8.000304e-001 4.850000e+001
      endloop
   endfacet
   facet normal 0.000000e+000 0.000000e+000 1.000000e+000
      outer loop
         vertex 0.000000e+000 0.000000e+000 4.850000e+001
         vertex 3.072552e+000 -8.000304e-001 4.850000e+001
         vertex 3.163562e+000 -2.692588e-001 4.850000e+001
      endloop
   endfacet
   facet normal 0.000000e+000 0.000000e+000 1.000000e+000
      outer loop
         vertex 1.429397e+000 -2.835040e+000 4.850000e+001
         vertex 1.887960e+000 -2.552691e+000 4.850000e+001
         vertex 0.000000e+000 0.000000e+000 4.850000e+001
      endloop
   endfacet
   facet normal 0.000000e+000 0.000000e+000 1.000000e+000
      outer loop
         vertex 0.000000e+000 0.000000e+000 4.850000e+001
         vertex 1.887960e+000 -2.552691e+000 4.850000e+001
         vertex 2.292211e+000 -2.196906e+000 4.850000e+001
      endloop
   endfacet
   facet normal 0.000000e+000 0.000000e+000 1.000000e+000
      outer loop
         vertex 0.000000e+000 0.000000e+000 4.850000e+001
         vertex 2.292211e+000 -2.196906e+000 4.850000e+001
         vertex 2.630518e+000 -1.777920e+000 4.850000e+001
      endloop
   endfacet
   facet normal 0.000000e+000 0.000000e+000 1.000000e+000
      outer loop
         vertex -1.347508e-001 -3.172139e+000 4.850000e+001
         vertex 4.032816e-001 -3.149284e+000 4.850000e+001
         vertex 0.000000e+000 0.000000e+000 4.850000e+001
      endloop
   endfacet
   facet normal 0.000000e+000 0.000000e+000 1.000000e+000
      outer loop
         vertex 0.000000e+000 0.000000e+000 4.850000e+001
         vertex 4.032816e-001 -3.149284e+000 4.850000e+001
         vertex 9.297123e-001 -3.035829e+000 4.850000e+001
      endloop
   endfacet
   facet normal 0.000000e+000 0.000000e+000 1.000000e+000
      outer loop
         vertex 0.000000e+000 0.000000e+000 4.850000e+001
         vertex 9.297123e-001 -3.035829e+000 4.850000e+001
         vertex 1.429397e+000 -2.835040e+000 4.850000e+001
      endloop
   endfacet
   facet normal 0.000000e+000 0.000000e+000 1.000000e+000
      outer loop
         vertex -1.664676e+000 -2.703605e+000 4.850000e+001
         vertex -1.183819e+000 -2.946048e+000 4.850000e+001
         vertex 0.000000e+000 0.000000e+000 4.850000e+001
      endloop
   endfacet
   facet normal 0.000000e+000 0.000000e+000 1.000000e+000
      outer loop
         vertex 0.000000e+000 0.000000e+000 4.850000e+001
         vertex -1.183819e+000 -2.946048e+000 4.850000e+001
         vertex -6.689067e-001 -3.103738e+000 4.850000e+001
      endloop
   endfacet
   facet normal 0.000000e+000 0.000000e+000 1.000000e+000
      outer loop
         vertex 0.000000e+000 0.000000e+000 4.850000e+001
         vertex -6.689067e-001 -3.103738e+000 4.850000e+001
         vertex -1.347508e-001 -3.172139e+000 4.850000e+001
      endloop
   endfacet
   facet normal 0.000000e+000 0.000000e+000 1.000000e+000
      outer loop
         vertex -2.771820e+000 -1.548432e+000 4.850000e+001
         vertex -2.470263e+000 -1.994598e+000 4.850000e+001
         vertex 0.000000e+000 0.000000e+000 4.850000e+001
      endloop
   endfacet
   facet normal 0.000000e+000 0.000000e+000 1.000000e+000
      outer loop
         vertex 0.000000e+000 0.000000e+000 4.850000e+001
         vertex -2.470263e+000 -1.994598e+000 4.850000e+001
         vertex -2.097642e+000 -2.383385e+000 4.850000e+001
      endloop
   endfacet
   facet normal 0.000000e+000 0.000000e+000 1.000000e+000
      outer loop
         vertex 0.000000e+000 0.000000e+000 4.850000e+001
         vertex -2.097642e+000 -2.383385e+000 4.850000e+001
         vertex -1.664676e+000 -2.703605e+000 4.850000e+001
      endloop
   endfacet
   facet normal 0.000000e+000 0.000000e+000 1.000000e+000
      outer loop
         vertex -3.175000e+000 0.000000e+000 4.850000e+001
         vertex -3.129330e+000 -5.365776e-001 4.850000e+001
         vertex 0.000000e+000 0.000000e+000 4.850000e+001
      endloop
   endfacet
   facet normal 0.000000e+000 0.000000e+000 1.000000e+000
      outer loop
         vertex 0.000000e+000 0.000000e+000 4.850000e+001
         vertex -3.129330e+000 -5.365776e-001 4.850000e+001
         vertex -2.993636e+000 -1.057719e+000 4.850000e+001
      endloop
   endfacet
   facet normal 0.000000e+000 0.000000e+000 1.000000e+000
      outer loop
         vertex 0.000000e+000 0.000000e+000 4.850000e+001
         vertex -2.993636e+000 -1.057719e+000 4.850000e+001
         vertex -2.771820e+000 -1.548432e+000 4.850000e+001
      endloop
   endfacet
   facet normal 0.000000e+000 0.000000e+000 1.000000e+000
      outer loop
         vertex -2.771820e+000 1.548432e+000 4.850000e+001
         vertex -2.993636e+000 1.057719e+000 4.850000e+001
         vertex 0.000000e+000 0.000000e+000 4.850000e+001
      endloop
   endfacet
   facet normal 0.000000e+000 0.000000e+000 1.000000e+000
      outer loop
         vertex 0.000000e+000 0.000000e+000 4.850000e+001
         vertex -2.993636e+000 1.057719e+000 4.850000e+001
         vertex -3.129330e+000 5.365776e-001 4.850000e+001
      endloop
   endfacet
   facet normal 0.000000e+000 0.000000e+000 1.000000e+000
      outer loop
         vertex 0.000000e+000 0.000000e+000 4.850000e+001
         vertex -3.129330e+000 5.365776e-001 4.850000e+001
         vertex -3.175000e+000 0.000000e+000 4.850000e+001
      endloop
   endfacet
   facet normal 0.000000e+000 0.000000e+000 1.000000e+000
      outer loop
         vertex -1.664676e+000 2.703605e+000 4.850000e+001
         vertex -2.097642e+000 2.383385e+000 4.850000e+001
         vertex 0.000000e+000 0.000000e+000 4.850000e+001
      endloop
   endfacet
   facet normal 0.000000e+000 0.000000e+000 1.000000e+000
      outer loop
         vertex 0.000000e+000 0.000000e+000 4.850000e+001
         vertex -2.097642e+000 2.383385e+000 4.850000e+001
         vertex -2.470263e+000 1.994598e+000 4.850000e+001
      endloop
   endfacet
   facet normal 0.000000e+000 0.000000e+000 1.000000e+000
      outer loop
         vertex 0.000000e+000 0.000000e+000 4.850000e+001
         vertex -2.470263e+000 1.994598e+000 4.850000e+001
         vertex -2.771820e+000 1.548432e+000 4.850000e+001
      endloop
   endfacet
   facet normal 0.000000e+000 0.000000e+000 1.000000e+000
      outer loop
         vertex -1.347508e-001 3.172139e+000 4.850000e+001
         vertex -6.689067e-001 3.103738e+000 4.850000e+001
         vertex 0.000000e+000 0.000000e+000 4.850000e+001
      endloop
   endfacet
   facet normal 0.000000e+000 0.000000e+000 1.000000e+000
      outer loop
         vertex 0.000000e+000 0.000000e+000 4.850000e+001
         vertex -6.689067e-001 3.103738e+000 4.850000e+001
         vertex -1.183819e+000 2.946048e+000 4.850000e+001
      endloop
   endfacet
   facet normal 0.000000e+000 0.000000e+000 1.000000e+000
      outer loop
         vertex 0.000000e+000 0.000000e+000 4.850000e+001
         vertex -1.183819e+000 2.946048e+000 4.850000e+001
         vertex -1.664676e+000 2.703605e+000 4.850000e+001
      endloop
   endfacet
   facet normal 0.000000e+000 0.000000e+000 1.000000e+000
      outer loop
         vertex 1.429397e+000 2.835040e+000 4.850000e+001
         vertex 9.297123e-001 3.035829e+000 4.850000e+001
         vertex 0.000000e+000 0.000000e+000 4.850000e+001
      endloop
   endfacet
   facet normal 0.000000e+000 0.000000e+000 1.000000e+000
      outer loop
         vertex 0.000000e+000 0.000000e+000 4.850000e+001
         vertex 9.297123e-001 3.035829e+000 4.850000e+001
         vertex 4.032816e-001 3.149284e+000 4.850000e+001
      endloop
   endfacet
   facet normal 0.000000e+000 0.000000e+000 1.000000e+000
      outer loop
         vertex 0.000000e+000 0.000000e+000 4.850000e+001
         vertex 4.032816e-001 3.149284e+000 4.850000e+001
         vertex -1.347508e-001 3.172139e+000 4.850000e+001
      endloop
   endfacet
   facet normal 0.000000e+000 0.000000e+000 1.000000e+000
      outer loop
         vertex 2.630518e+000 1.777920e+000 4.850000e+001
         vertex 2.292211e+000 2.196906e+000 4.850000e+001
         vertex 0.000000e+000 0.000000e+000 4.850000e+001
      endloop
   endfacet
   facet normal 0.000000e+000 0.000000e+000 1.000000e+000
      outer loop
         vertex 0.000000e+000 0.000000e+000 4.850000e+001
         vertex 2.292211e+000 2.196906e+000 4.850000e+001
         vertex 1.887960e+000 2.552691e+000 4.850000e+001
      endloop
   endfacet
   facet normal 0.000000e+000 0.000000e+000 1.000000e+000
      outer loop
         vertex 0.000000e+000 0.000000e+000 4.850000e+001
         vertex 1.887960e+000 2.552691e+000 4.850000e+001
         vertex 1.429397e+000 2.835040e+000 4.850000e+001
      endloop
   endfacet
   facet normal 0.000000e+000 0.000000e+000 1.000000e+000
      outer loop
         vertex 3.163562e+000 2.692588e-001 4.850000e+001
         vertex 3.072552e+000 8.000304e-001 4.850000e+001
         vertex 0.000000e+000 0.000000e+000 4.850000e+001
      endloop
   endfacet
   facet normal 0.000000e+000 0.000000e+000 1.000000e+000
      outer loop
         vertex 0.000000e+000 0.000000e+000 4.850000e+001
         vertex 3.072552e+000 8.000304e-001 4.850000e+001
         vertex 2.893151e+000 1.307786e+000 4.850000e+001
      endloop
   endfacet
   facet normal 0.000000e+000 0.000000e+000 1.000000e+000
      outer loop
         vertex 0.000000e+000 0.000000e+000 4.850000e+001
         vertex 2.893151e+000 1.307786e+000 4.850000e+001
         vertex 2.630518e+000 1.777920e+000 4.850000e+001
      endloop
   endfacet
   facet normal 0.000000e+000 0.000000e+000 -1.000000e+000
      outer loop
         vertex 3.175000e+000 1.166476e-015 -4.850000e+001
         vertex 3.163562e+000 -2.692588e-001 -4.850000e+001
         vertex 0.000000e+000 0.000000e+000 -4.850000e+001
      endloop
   endfacet
   facet normal 0.000000e+000 0.000000e+000 -1.000000e+000
      outer loop
         vertex 3.175000e+000 1.166476e-015 -4.850000e+001
         vertex 0.000000e+000 0.000000e+000 -4.850000e+001
         vertex 3.163562e+000 2.692588e-001 -4.850000e+001
      endloop
   endfacet
   facet normal 0.000000e+000 0.000000e+000 -1.000000e+000
      outer loop
         vertex 2.630518e+000 1.777920e+000 -4.850000e+001
         vertex 2.893151e+000 1.307786e+000 -4.850000e+001
         vertex 0.000000e+000 0.000000e+000 -4.850000e+001
      endloop
   endfacet
   facet normal 0.000000e+000 0.000000e+000 -1.000000e+000
      outer loop
         vertex 0.000000e+000 0.000000e+000 -4.850000e+001
         vertex 2.893151e+000 1.307786e+000 -4.850000e+001
         vertex 3.072552e+000 8.000304e-001 -4.850000e+001
      endloop
   endfacet
   facet normal 0.000000e+000 0.000000e+000 -1.000000e+000
      outer loop
         vertex 0.000000e+000 0.000000e+000 -4.850000e+001
         vertex 3.072552e+000 8.000304e-001 -4.850000e+001
         vertex 3.163562e+000 2.692588e-001 -4.850000e+001
      endloop
   endfacet
   facet normal 0.000000e+000 0.000000e+000 -1.000000e+000
      outer loop
         vertex 1.429397e+000 2.835040e+000 -4.850000e+001
         vertex 1.887960e+000 2.552691e+000 -4.850000e+001
         vertex 0.000000e+000 0.000000e+000 -4.850000e+001
      endloop
   endfacet
   facet normal 0.000000e+000 0.000000e+000 -1.000000e+000
      outer loop
         vertex 0.000000e+000 0.000000e+000 -4.850000e+001
         vertex 1.887960e+000 2.552691e+000 -4.850000e+001
         vertex 2.292211e+000 2.196906e+000 -4.850000e+001
      endloop
   endfacet
   facet normal 0.000000e+000 0.000000e+000 -1.000000e+000
      outer loop
         vertex 0.000000e+000 0.000000e+000 -4.850000e+001
         vertex 2.292211e+000 2.196906e+000 -4.850000e+001
         vertex 2.630518e+000 1.777920e+000 -4.850000e+001
      endloop
   endfacet
   facet normal 0.000000e+000 0.000000e+000 -1.000000e+000
      outer loop
         vertex -1.347508e-001 3.172139e+000 -4.850000e+001
         vertex 4.032816e-001 3.149284e+000 -4.850000e+001
         vertex 0.000000e+000 0.000000e+000 -4.850000e+001
      endloop
   endfacet
   facet normal 0.000000e+000 0.000000e+000 -1.000000e+000
      outer loop
         vertex 0.000000e+000 0.000000e+000 -4.850000e+001
         vertex 4.032816e-001 3.149284e+000 -4.850000e+001
         vertex 9.297123e-001 3.035829e+000 -4.850000e+001
      endloop
   endfacet
   facet normal 0.000000e+000 0.000000e+000 -1.000000e+000
      outer loop
         vertex 0.000000e+000 0.000000e+000 -4.850000e+001
         vertex 9.297123e-001 3.035829e+000 -4.850000e+001
         vertex 1.429397e+000 2.835040e+000 -4.850000e+001
      endloop
   endfacet
   facet normal 0.000000e+000 0.000000e+000 -1.000000e+000
      outer loop
         vertex -1.664676e+000 2.703605e+000 -4.850000e+001
         vertex -1.183819e+000 2.946048e+000 -4.850000e+001
         vertex 0.000000e+000 0.000000e+000 -4.850000e+001
      endloop
   endfacet
   facet normal 0.000000e+000 0.000000e+000 -1.000000e+000
      outer loop
         vertex 0.000000e+000 0.000000e+000 -4.850000e+001
         vertex -1.183819e+000 2.946048e+000 -4.850000e+001
         vertex -6.689067e-001 3.103738e+000 -4.850000e+001
      endloop
   endfacet
   facet normal 0.000000e+000 0.000000e+000 -1.000000e+000
      outer loop
         vertex 0.000000e+000 0.000000e+000 -4.850000e+001
         vertex -6.689067e-001 3.103738e+000 -4.850000e+001
         vertex -1.347508e-001 3.172139e+000 -4.850000e+001
      endloop
   endfacet
   facet normal 0.000000e+000 0.000000e+000 -1.000000e+000
      outer loop
         vertex -2.771820e+000 1.548432e+000 -4.850000e+001
         vertex -2.470263e+000 1.994598e+000 -4.850000e+001
         vertex 0.000000e+000 0.000000e+000 -4.850000e+001
      endloop
   endfacet
   facet normal 0.000000e+000 0.000000e+000 -1.000000e+000
      outer loop
         vertex 0.000000e+000 0.000000e+000 -4.850000e+001
         vertex -2.470263e+000 1.994598e+000 -4.850000e+001
         vertex -2.097642e+000 2.383385e+000 -4.850000e+001
      endloop
   endfacet
   facet normal 0.000000e+000 0.000000e+000 -1.000000e+000
      outer loop
         vertex 0.000000e+000 0.000000e+000 -4.850000e+001
         vertex -2.097642e+000 2.383385e+000 -4.850000e+001
         vertex -1.664676e+000 2.703605e+000 -4.850000e+001
      endloop
   endfacet
   facet normal 0.000000e+000 0.000000e+000 -1.000000e+000
      outer loop
         vertex -3.175000e+000 0.000000e+000 -4.850000e+001
         vertex -3.129330e+000 5.365776e-001 -4.850000e+001
         vertex 0.000000e+000 0.000000e+000 -4.850000e+001
      endloop
   endfacet
   facet normal 0.000000e+000 0.000000e+000 -1.000000e+000
      outer loop
         vertex 0.000000e+000 0.000000e+000 -4.850000e+001
         vertex -3.129330e+000 5.365776e-001 -4.850000e+001
         vertex -2.993636e+000 1.057719e+000 -4.850000e+001
      endloop
   endfacet
   facet normal 0.000000e+000 0.000000e+000 -1.000000e+000
      outer loop
         vertex 0.000000e+000 0.000000e+000 -4.850000e+001
         vertex -2.993636e+000 1.057719e+000 -4.850000e+001
         vertex -2.771820e+000 1.548432e+000 -4.850000e+001
      endloop
   endfacet
   facet normal 0.000000e+000 0.000000e+000 -1.000000e+000
      outer loop
         vertex -2.771820e+000 -1.548432e+000 -4.850000e+001
         vertex -2.993636e+000 -1.057719e+000 -4.850000e+001
         vertex 0.000000e+000 0.000000e+000 -4.850000e+001
      endloop
   endfacet
   facet normal 0.000000e+000 0.000000e+000 -1.000000e+000
      outer loop
         vertex 0.000000e+000 0.000000e+000 -4.850000e+001
         vertex -2.993636e+000 -1.057719e+000 -4.850000e+001
         vertex -3.129330e+000 -5.365776e-001 -4.850000e+001
      endloop
   endfacet
   facet normal 0.000000e+000 0.000000e+000 -1.000000e+000
      outer loop
         vertex 0.000000e+000 0.000000e+000 -4.850000e+001
         vertex -3.129330e+000 -5.365776e-001 -4.850000e+001
         vertex -3.175000e+000 0.000000e+000 -4.850000e+001
      endloop
   endfacet
   facet normal 0.000000e+000 0.000000e+000 -1.000000e+000
      outer loop
         vertex -1.664676e+000 -2.703605e+000 -4.850000e+001
         vertex -2.097642e+000 -2.383385e+000 -4.850000e+001
         vertex 0.000000e+000 0.000000e+000 -4.850000e+001
      endloop
   endfacet
   facet normal 0.000000e+000 0.000000e+000 -1.000000e+000
      outer loop
         vertex 0.000000e+000 0.000000e+000 -4.850000e+001
         vertex -2.097642e+000 -2.383385e+000 -4.850000e+001
         vertex -2.470263e+000 -1.994598e+000 -4.850000e+001
      endloop
   endfacet
   facet normal 0.000000e+000 0.000000e+000 -1.000000e+000
      outer loop
         vertex 0.000000e+000 0.000000e+000 -4.850000e+001
         vertex -2.470263e+000 -1.994598e+000 -4.850000e+001
         vertex -2.771820e+000 -1.548432e+000 -4.850000e+001
      endloop
   endfacet
   facet normal 0.000000e+000 0.000000e+000 -1.000000e+000
      outer loop
         vertex -1.347508e-001 -3.172139e+000 -4.850000e+001
         vertex -6.689067e-001 -3.103738e+000 -4.850000e+001
         vertex 0.000000e+000 0.000000e+000 -4.850000e+001
      endloop
   endfacet
   facet normal 0.000000e+000 0.000000e+000 -1.000000e+000
      outer loop
         vertex 0.000000e+000 0.000000e+000 -4.850000e+001
         vertex -6.689067e-001 -3.103738e+000 -4.850000e+001
         vertex -1.183819e+000 -2.946048e+000 -4.850000e+001
      endloop
   endfacet
   facet normal 0.000000e+000 0.000000e+000 -1.000000e+000
      outer loop
         vertex 0.000000e+000 0.000000e+000 -4.850000e+001
         vertex -1.183819e+000 -2.946048e+000 -4.850000e+001
         vertex -1.664676e+000 -2.703605e+000 -4.850000e+001
      endloop
   endfacet
   facet normal 0.000000e+000 0.000000e+000 -1.000000e+000
      outer loop
         vertex 1.429397e+000 -2.835040e+000 -4.850000e+001
         vertex 9.297123e-001 -3.035829e+000 -4.850000e+001
         vertex 0.000000e+000 0.000000e+000 -4.850000e+001
      endloop
   endfacet
   facet normal 0.000000e+000 0.000000e+000 -1.000000e+000
      outer loop
         vertex 0.000000e+000 0.000000e+000 -4.850000e+001
         vertex 9.297123e-001 -3.035829e+000 -4.850000e+001
         vertex 4.032816e-001 -3.149284e+000 -4.850000e+001
      endloop
   endfacet
   facet normal 0.000000e+000 0.000000e+000 -1.000000e+000
      outer loop
         vertex 0.000000e+000 0.000000e+000 -4.850000e+001
         vertex 4.032816e-001 -3.149284e+000 -4.850000e+001
         vertex -1.347508e-001 -3.172139e+000 -4.850000e+001
      endloop
   endfacet
   facet normal 0.000000e+000 0.000000e+000 -1.000000e+000
      outer loop
         vertex 2.630518e+000 -1.777920e+000 -4.850000e+001
         vertex 2.292211e+000 -2.196906e+000 -4.850000e+001
         vertex 0.000000e+000 0.000000e+000 -4.850000e+001
      endloop
   endfacet
   facet normal 0.000000e+000 0.000000e+000 -1.000000e+000
      outer loop
         vertex 0.000000e+000 0.000000e+000 -4.850000e+001
         vertex 2.292211e+000 -2.196906e+000 -4.850000e+001
         vertex 1.887960e+000 -2.552691e+000 -4.850000e+001
      endloop
   endfacet
   facet normal 0.000000e+000 0.000000e+000 -1.000000e+000
      outer loop
         vertex 0.000000e+000 0.000000e+000 -4.850000e+001
         vertex 1.887960e+000 -2.552691e+000 -4.850000e+001
         vertex 1.429397e+000 -2.835040e+000 -4.850000e+001
      endloop
   endfacet
   facet normal 0.000000e+000 0.000000e+000 -1.000000e+000
      outer loop
         vertex 3.163562e+000 -2.692588e-001 -4.850000e+001
         vertex 3.072552e+000 -8.000304e-001 -4.850000e+001
         vertex 0.000000e+000 0.000000e+000 -4.850000e+001
      endloop
   endfacet
   facet normal 0.000000e+000 0.000000e+000 -1.000000e+000
      outer loop
         vertex 0.000000e+000 0.000000e+000 -4.850000e+001
         vertex 3.072552e+000 -8.000304e-001 -4.850000e+001
         vertex 2.893151e+000 -1.307786e+000 -4.850000e+001
      endloop
   endfacet
   facet normal 0.000000e+000 0.000000e+000 -1.000000e+000
      outer loop
         vertex 0.000000e+000 0.000000e+000 -4.850000e+001
         vertex 2.893151e+000 -1.307786e+000 -4.850000e+001
         vertex 2.630518e+000 -1.777920e+000 -4.850000e+001
      endloop
   endfacet
endsolid