solid MotorBody_Default_sldprt
   facet normal 1.000000e+000 1.982541e-016 0.000000e+000
      outer loop
         vertex 2.750000e+001 -1.750000e+001 -3.250000e+001
         vertex 2.750000e+001 -1.250000e+001 -3.250000e+001
         vertex 2.750000e+001 -1.250000e+001 -1.750000e+001
      endloop
   endfacet
   facet normal 1.000000e+000 1.982541e-016 0.000000e+000
      outer loop
         vertex 2.750000e+001 7.500000e+000 -3.250000e+001
         vertex 2.750000e+001 1.750000e+001 -3.250000e+001
         vertex 2.750000e+001 7.500000e+000 -1.750000e+001
      endloop
   endfacet
   facet normal 1.000000e+000 1.982541e-016 0.000000e+000
      outer loop
         vertex 2.750000e+001 7.500000e+000 -1.750000e+001
         vertex 2.750000e+001 1.750000e+001 -3.250000e+001
         vertex 2.750000e+001 1.750000e+001 3.250000e+001
      endloop
   endfacet
   facet normal 1.000000e+000 1.982541e-016 0.000000e+000
      outer loop
         vertex 2.750000e+001 7.500000e+000 -1.750000e+001
         vertex 2.750000e+001 1.750000e+001 3.250000e+001
         vertex 2.750000e+001 -1.250000e+001 -1.750000e+001
      endloop
   endfacet
   facet normal 1.000000e+000 1.982541e-016 0.000000e+000
      outer loop
         vertex 2.750000e+001 -1.250000e+001 -1.750000e+001
         vertex 2.750000e+001 1.750000e+001 3.250000e+001
         vertex 2.750000e+001 -1.750000e+001 3.250000e+001
      endloop
   endfacet
   facet normal 1.000000e+000 1.982541e-016 0.000000e+000
      outer loop
         vertex 2.750000e+001 -1.250000e+001 -1.750000e+001
         vertex 2.750000e+001 -1.750000e+001 3.250000e+001
         vertex 2.750000e+001 -1.750000e+001 -3.250000e+001
      endloop
   endfacet
   facet normal 0.000000e+000 0.000000e+000 1.000000e+000
      outer loop
         vertex 1.750000e+001 -1.750000e+001 3.250000e+001
         vertex 2.750000e+001 -1.750000e+001 3.250000e+001
         vertex 2.750000e+001 1.750000e+001 3.250000e+001
      endloop
   endfacet
   facet normal 0.000000e+000 0.000000e+000 1.000000e+000
      outer loop
         vertex -2.750000e+001 1.750000e+001 3.250000e+001
         vertex -2.750000e+001 -1.750000e+001 3.250000e+001
         vertex -1.750000e+001 -1.750000e+001 3.250000e+001
      endloop
   endfacet
   facet normal 0.000000e+000 0.000000e+000 1.000000e+000
      outer loop
         vertex -1.750000e+001 -2.750000e+001 3.250000e+001
         vertex 1.750000e+001 -2.750000e+001 3.250000e+001
         vertex 1.750000e+001 -1.750000e+001 3.250000e+001
      endloop
   endfacet
   facet normal 0.000000e+000 0.000000e+000 1.000000e+000
      outer loop
         vertex -1.500000e+001 1.500000e+001 3.250000e+001
         vertex 1.500000e+001 1.500000e+001 3.250000e+001
         vertex -1.750000e+001 1.750000e+001 3.250000e+001
      endloop
   endfacet
   facet normal 0.000000e+000 0.000000e+000 1.000000e+000
      outer loop
         vertex -1.750000e+001 1.750000e+001 3.250000e+001
         vertex 1.500000e+001 1.500000e+001 3.250000e+001
         vertex 1.750000e+001 1.750000e+001 3.250000e+001
      endloop
   endfacet
   facet normal 0.000000e+000 0.000000e+000 1.000000e+000
      outer loop
         vertex -1.750000e+001 1.750000e+001 3.250000e+001
         vertex 1.750000e+001 1.750000e+001 3.250000e+001
         vertex -1.750000e+001 2.750000e+001 3.250000e+001
      endloop
   endfacet
   facet normal 0.000000e+000 0.000000e+000 1.000000e+000
      outer loop
         vertex -1.750000e+001 2.750000e+001 3.250000e+001
         vertex 1.750000e+001 1.750000e+001 3.250000e+001
         vertex 1.750000e+001 2.750000e+001 3.250000e+001
      endloop
   endfacet
   facet normal 0.000000e+000 0.000000e+000 1.000000e+000
      outer loop
         vertex -2.750000e+001 1.750000e+001 3.250000e+001
         vertex -1.750000e+001 -1.750000e+001 3.250000e+001
         vertex -1.750000e+001 1.750000e+001 3.250000e+001
      endloop
   endfacet
   facet normal 0.000000e+000 0.000000e+000 1.000000e+000
      outer loop
         vertex -1.750000e+001 -2.750000e+001 3.250000e+001
         vertex 1.750000e+001 -1.750000e+001 3.250000e+001
         vertex -1.750000e+001 -1.750000e+001 3.250000e+001
      endloop
   endfacet
   facet normal 0.000000e+000 0.000000e+000 1.000000e+000
      outer loop
         vertex -1.500000e+001 1.500000e+001 3.250000e+001
         vertex -1.750000e+001 1.750000e+001 3.250000e+001
         vertex -1.500000e+001 -1.500000e+001 3.250000e+001
      endloop
   endfacet
   facet normal 0.000000e+000 0.000000e+000 1.000000e+000
      outer loop
         vertex -1.500000e+001 -1.500000e+001 3.250000e+001
         vertex -1.750000e+001 1.750000e+001 3.250000e+001
         vertex -1.750000e+001 -1.750000e+001 3.250000e+001
      endloop
   endfacet
   facet normal 0.000000e+000 0.000000e+000 1.000000e+000
      outer loop
         vertex -1.500000e+001 -1.500000e+001 3.250000e+001
         vertex -1.750000e+001 -1.750000e+001 3.250000e+001
         vertex 1.500000e+001 -1.500000e+001 3.250000e+001
      endloop
   endfacet
   facet normal 0.000000e+000 0.000000e+000 1.000000e+000
      outer loop
         vertex 1.500000e+001 -1.500000e+001 3.250000e+001
         vertex -1.750000e+001 -1.750000e+001 3.250000e+001
         vertex 1.750000e+001 -1.750000e+001 3.250000e+001
      endloop
   endfacet
   facet normal 0.000000e+000 0.000000e+000 1.000000e+000
      outer loop
         vertex 1.500000e+001 -1.500000e+001 3.250000e+001
         vertex 1.750000e+001 -1.750000e+001 3.250000e+001
         vertex 1.500000e+001 1.500000e+001 3.250000e+001
      endloop
   endfacet
   facet normal 0.000000e+000 0.000000e+000 1.000000e+000
      outer loop
         vertex 1.500000e+001 1.500000e+001 3.250000e+001
         vertex 1.750000e+001 -1.750000e+001 3.250000e+001
         vertex 2.750000e+001 1.750000e+001 3.250000e+001
      endloop
   endfacet
   facet normal 0.000000e+000 0.000000e+000 1.000000e+000
      outer loop
         vertex 1.500000e+001 1.500000e+001 3.250000e+001
         vertex 2.750000e+001 1.750000e+001 3.250000e+001
         vertex 1.750000e+001 1.750000e+001 3.250000e+001
      endloop
   endfacet
   facet normal 0.000000e+000 0.000000e+000 -1.000000e+000
      outer loop
         vertex 2.750000e+001 -1.250000e+001 -3.250000e+001
         vertex 2.750000e+001 -1.750000e+001 -3.250000e+001
         vertex 1.750000e+001 -1.750000e+001 -3.250000e+001
      endloop
   endfacet
   facet normal 0.000000e+000 0.000000e+000 -1.000000e+000
      outer loop
         vertex -1.500000e+001 1.500000e+001 -3.250000e+001
         vertex 1.750000e+001 1.750000e+001 -3.250000e+001
         vertex 1.500000e+001 1.500000e+001 -3.250000e+001
      endloop
   endfacet
   facet normal 0.000000e+000 0.000000e+000 -1.000000e+000
      outer loop
         vertex 1.500000e+001 1.500000e+001 -3.250000e+001
         vertex 1.750000e+001 1.750000e+001 -3.250000e+001
         vertex 2.750000e+001 1.750000e+001 -3.250000e+001
      endloop
   endfacet
   facet normal 0.000000e+000 0.000000e+000 -1.000000e+000
      outer loop
         vertex 3.450000e+001 7.500000e+000 -3.250000e+001
         vertex 3.450000e+001 -1.250000e+001 -3.250000e+001
         vertex 2.750000e+001 7.500000e+000 -3.250000e+001
      endloop
   endfacet
   facet normal 0.000000e+000 0.000000e+000 -1.000000e+000
      outer loop
         vertex 2.750000e+001 7.500000e+000 -3.250000e+001
         vertex 3.450000e+001 -1.250000e+001 -3.250000e+001
         vertex 2.750000e+001 -1.250000e+001 -3.250000e+001
      endloop
   endfacet
   facet normal 0.000000e+000 0.000000e+000 -1.000000e+000
      outer loop
         vertex 2.750000e+001 1.750000e+001 -3.250000e+001
         vertex 2.750000e+001 7.500000e+000 -3.250000e+001
         vertex 1.500000e+001 1.500000e+001 -3.250000e+001
      endloop
   endfacet
   facet normal 0.000000e+000 0.000000e+000 -1.000000e+000
      outer loop
         vertex 1.500000e+001 1.500000e+001 -3.250000e+001
         vertex 2.750000e+001 7.500000e+000 -3.250000e+001
         vertex 2.750000e+001 -1.250000e+001 -3.250000e+001
      endloop
   endfacet
   facet normal 0.000000e+000 0.000000e+000 -1.000000e+000
      outer loop
         vertex 1.500000e+001 1.500000e+001 -3.250000e+001
         vertex 2.750000e+001 -1.250000e+001 -3.250000e+001
         vertex 1.500000e+001 -1.500000e+001 -3.250000e+001
      endloop
   endfacet
   facet normal 0.000000e+000 0.000000e+000 -1.000000e+000
      outer loop
         vertex 1.500000e+001 -1.500000e+001 -3.250000e+001
         vertex 2.750000e+001 -1.250000e+001 -3.250000e+001
         vertex 1.750000e+001 -1.750000e+001 -3.250000e+001
      endloop
   endfacet
   facet normal 0.000000e+000 0.000000e+000 -1.000000e+000
      outer loop
         vertex 1.500000e+001 -1.500000e+001 -3.250000e+001
         vertex 1.750000e+001 -1.750000e+001 -3.250000e+001
         vertex -1.500000e+001 -1.500000e+001 -3.250000e+001
      endloop
   endfacet
   facet normal 0.000000e+000 0.000000e+000 -1.000000e+000
      outer loop
         vertex -1.500000e+001 -1.500000e+001 -3.250000e+001
         vertex 1.750000e+001 -1.750000e+001 -3.250000e+001
         vertex -1.750000e+001 -1.750000e+001 -3.250000e+001
      endloop
   endfacet
   facet normal 0.000000e+000 0.000000e+000 -1.000000e+000
      outer loop
         vertex -1.750000e+001 -1.750000e+001 -3.250000e+001
         vertex 1.750000e+001 -1.750000e+001 -3.250000e+001
         vertex 1.750000e+001 -2.750000e+001 -3.250000e+001
      endloop
   endfacet
   facet normal 0.000000e+000 0.000000e+000 -1.000000e+000
      outer loop
         vertex -1.750000e+001 -1.750000e+001 -3.250000e+001
         vertex 1.750000e+001 -2.750000e+001 -3.250000e+001
         vertex -1.750000e+001 -2.750000e+001 -3.250000e+001
      endloop
   endfacet
   facet normal 0.000000e+000 0.000000e+000 -1.000000e+000
      outer loop
         vertex -1.750000e+001 -1.750000e+001 -3.250000e+001
         vertex -2.750000e+001 -1.750000e+001 -3.250000e+001
         vertex -1.500000e+001 -1.500000e+001 -3.250000e+001
      endloop
   endfacet
   facet normal 0.000000e+000 0.000000e+000 -1.000000e+000
      outer loop
         vertex -1.500000e+001 -1.500000e+001 -3.250000e+001
         vertex -2.750000e+001 -1.750000e+001 -3.250000e+001
         vertex -2.750000e+001 1.750000e+001 -3.250000e+001
      endloop
   endfacet
   facet normal 0.000000e+000 0.000000e+000 -1.000000e+000
      outer loop
         vertex -1.500000e+001 -1.500000e+001 -3.250000e+001
         vertex -2.750000e+001 1.750000e+001 -3.250000e+001
         vertex -1.500000e+001 1.500000e+001 -3.250000e+001
      endloop
   endfacet
   facet normal 0.000000e+000 0.000000e+000 -1.000000e+000
      outer loop
         vertex -1.500000e+001 1.500000e+001 -3.250000e+001
         vertex -2.750000e+001 1.750000e+001 -3.250000e+001
         vertex -1.750000e+001 1.750000e+001 -3.250000e+001
      endloop
   endfacet
   facet normal 0.000000e+000 0.000000e+000 -1.000000e+000
      outer loop
         vertex -1.500000e+001 1.500000e+001 -3.250000e+001
         vertex -1.750000e+001 1.750000e+001 -3.250000e+001
         vertex 1.750000e+001 1.750000e+001 -3.250000e+001
      endloop
   endfacet
   facet normal 0.000000e+000 0.000000e+000 -1.000000e+000
      outer loop
         vertex 1.750000e+001 1.750000e+001 -3.250000e+001
         vertex -1.750000e+001 1.750000e+001 -3.250000e+001
         vertex -1.750000e+001 2.750000e+001 -3.250000e+001
      endloop
   endfacet
   facet normal 0.000000e+000 0.000000e+000 -1.000000e+000
      outer loop
         vertex 1.750000e+001 1.750000e+001 -3.250000e+001
         vertex -1.750000e+001 2.750000e+001 -3.250000e+001
         vertex 1.750000e+001 2.750000e+001 -3.250000e+001
      endloop
   endfacet
   facet normal -1.000000e+000 -3.469447e-016 0.000000e+000
      outer loop
         vertex -1.750000e+001 1.750000e+001 3.250000e+001
         vertex -1.750000e+001 2.750000e+001 3.250000e+001
         vertex -1.750000e+001 1.750000e+001 -3.250000e+001
      endloop
   endfacet
   facet normal -1.000000e+000 -3.469447e-016 0.000000e+000
      outer loop
         vertex -1.750000e+001 1.750000e+001 -3.250000e+001
         vertex -1.750000e+001 2.750000e+001 3.250000e+001
         vertex -1.750000e+001 2.750000e+001 -3.250000e+001
      endloop
   endfacet
   facet normal 0.000000e+000 1.000000e+000 0.000000e+000
      outer loop
         vertex -2.750000e+001 1.750000e+001 3.250000e+001
         vertex -1.750000e+001 1.750000e+001 3.250000e+001
         vertex -2.750000e+001 1.750000e+001 -3.250000e+001
      endloop
   endfacet
   facet normal 0.000000e+000 1.000000e+000 0.000000e+000
      outer loop
         vertex -2.750000e+001 1.750000e+001 -3.250000e+001
         vertex -1.750000e+001 1.750000e+001 3.250000e+001
         vertex -1.750000e+001 1.750000e+001 -3.250000e+001
      endloop
   endfacet
   facet normal -1.000000e+000 -1.982541e-016 0.000000e+000
      outer loop
         vertex -2.750000e+001 -1.750000e+001 3.250000e+001
         vertex -2.750000e+001 1.750000e+001 3.250000e+001
         vertex -2.750000e+001 -1.750000e+001 -3.250000e+001
      endloop
   endfacet
   facet normal -1.000000e+000 -1.982541e-016 0.000000e+000
      outer loop
         vertex -2.750000e+001 -1.750000e+001 -3.250000e+001
         vertex -2.750000e+001 1.750000e+001 3.250000e+001
         vertex -2.750000e+001 1.750000e+001 -3.250000e+001
      endloop
   endfacet
   facet normal 0.000000e+000 -1.000000e+000 0.000000e+000
      outer loop
         vertex -1.750000e+001 -1.750000e+001 3.250000e+001
         vertex -2.750000e+001 -1.750000e+001 3.250000e+001
         vertex -1.750000e+001 -1.750000e+001 -3.250000e+001
      endloop
   endfacet
   facet normal 0.000000e+000 -1.000000e+000 0.000000e+000
      outer loop
         vertex -1.750000e+001 -1.750000e+001 -3.250000e+001
         vertex -2.750000e+001 -1.750000e+001 3.250000e+001
         vertex -2.750000e+001 -1.750000e+001 -3.250000e+001
      endloop
   endfacet
   facet normal -1.000000e+000 0.000000e+000 0.000000e+000
      outer loop
         vertex -1.750000e+001 -2.750000e+001 3.250000e+001
         vertex -1.750000e+001 -1.750000e+001 3.250000e+001
         vertex -1.750000e+001 -2.750000e+001 -3.250000e+001
      endloop
   endfacet
   facet normal -1.000000e+000 0.000000e+000 0.000000e+000
      outer loop
         vertex -1.750000e+001 -2.750000e+001 -3.250000e+001
         vertex -1.750000e+001 -1.750000e+001 3.250000e+001
         vertex -1.750000e+001 -1.750000e+001 -3.250000e+001
      endloop
   endfacet
   facet normal 0.000000e+000 -1.000000e+000 0.000000e+000
      outer loop
         vertex 1.750000e+001 -2.750000e+001 3.250000e+001
         vertex -1.750000e+001 -2.750000e+001 3.250000e+001
         vertex 1.750000e+001 -2.750000e+001 -3.250000e+001
      endloop
   endfacet
   facet normal 0.000000e+000 -1.000000e+000 0.000000e+000
      outer loop
         vertex 1.750000e+001 -2.750000e+001 -3.250000e+001
         vertex -1.750000e+001 -2.750000e+001 3.250000e+001
         vertex -1.750000e+001 -2.750000e+001 -3.250000e+001
      endloop
   endfacet
   facet normal 1.000000e+000 0.000000e+000 0.000000e+000
      outer loop
         vertex 1.750000e+001 -1.750000e+001 3.250000e+001
         vertex 1.750000e+001 -2.750000e+001 3.250000e+001
         vertex 1.750000e+001 -1.750000e+001 -3.250000e+001
      endloop
   endfacet
   facet normal 1.000000e+000 0.000000e+000 0.000000e+000
      outer loop
         vertex 1.750000e+001 -1.750000e+001 -3.250000e+001
         vertex 1.750000e+001 -2.750000e+001 3.250000e+001
         vertex 1.750000e+001 -2.750000e+001 -3.250000e+001
      endloop
   endfacet
   facet normal 0.000000e+000 -1.000000e+000 0.000000e+000
      outer loop
         vertex 2.750000e+001 -1.750000e+001 3.250000e+001
         vertex 1.750000e+001 -1.750000e+001 3.250000e+001
         vertex 2.750000e+001 -1.750000e+001 -3.250000e+001
      endloop
   endfacet
   facet normal 0.000000e+000 -1.000000e+000 0.000000e+000
      outer loop
         vertex 2.750000e+001 -1.750000e+001 -3.250000e+001
         vertex 1.750000e+001 -1.750000e+001 3.250000e+001
         vertex 1.750000e+001 -1.750000e+001 -3.250000e+001
      endloop
   endfacet
   facet normal 0.000000e+000 1.000000e+000 0.000000e+000
      outer loop
         vertex 1.750000e+001 1.750000e+001 3.250000e+001
         vertex 2.750000e+001 1.750000e+001 3.250000e+001
         vertex 1.750000e+001 1.750000e+001 -3.250000e+001
      endloop
   endfacet
   facet normal 0.000000e+000 1.000000e+000 0.000000e+000
      outer loop
         vertex 1.750000e+001 1.750000e+001 -3.250000e+001
         vertex 2.750000e+001 1.750000e+001 3.250000e+001
         vertex 2.750000e+001 1.750000e+001 -3.250000e+001
      endloop
   endfacet
   facet normal 1.000000e+000 0.000000e+000 0.000000e+000
      outer loop
         vertex 1.750000e+001 2.750000e+001 3.250000e+001
         vertex 1.750000e+001 1.750000e+001 3.250000e+001
         vertex 1.750000e+001 2.750000e+001 -3.250000e+001
      endloop
   endfacet
   facet normal 1.000000e+000 0.000000e+000 0.000000e+000
      outer loop
         vertex 1.750000e+001 2.750000e+001 -3.250000e+001
         vertex 1.750000e+001 1.750000e+001 3.250000e+001
         vertex 1.750000e+001 1.750000e+001 -3.250000e+001
      endloop
   endfacet
   facet normal 0.000000e+000 1.000000e+000 0.000000e+000
      outer loop
         vertex -1.750000e+001 2.750000e+001 3.250000e+001
         vertex 1.750000e+001 2.750000e+001 3.250000e+001
         vertex -1.750000e+001 2.750000e+001 -3.250000e+001
      endloop
   endfacet
   facet normal 0.000000e+000 1.000000e+000 0.000000e+000
      outer loop
         vertex -1.750000e+001 2.750000e+001 -3.250000e+001
         vertex 1.750000e+001 2.750000e+001 3.250000e+001
         vertex 1.750000e+001 2.750000e+001 -3.250000e+001
      endloop
   endfacet
   facet normal 1.000000e+000 5.782411e-017 0.000000e+000
      outer loop
         vertex -1.500000e+001 1.500000e+001 3.250000e+001
         vertex -1.500000e+001 -1.500000e+001 3.250000e+001
         vertex -1.500000e+001 1.500000e+001 -3.250000e+001
      endloop
   endfacet
   facet normal 1.000000e+000 5.782411e-017 0.000000e+000
      outer loop
         vertex -1.500000e+001 1.500000e+001 -3.250000e+001
         vertex -1.500000e+001 -1.500000e+001 3.250000e+001
         vertex -1.500000e+001 -1.500000e+001 -3.250000e+001
      endloop
   endfacet
   facet normal 0.000000e+000 1.000000e+000 0.000000e+000
      outer loop
         vertex -1.500000e+001 -1.500000e+001 3.250000e+001
         vertex 1.500000e+001 -1.500000e+001 3.250000e+001
         vertex -1.500000e+001 -1.500000e+001 -3.250000e+001
      endloop
   endfacet
   facet normal 0.000000e+000 1.000000e+000 0.000000e+000
      outer loop
         vertex -1.500000e+001 -1.500000e+001 -3.250000e+001
         vertex 1.500000e+001 -1.500000e+001 3.250000e+001
         vertex 1.500000e+001 -1.500000e+001 -3.250000e+001
      endloop
   endfacet
   facet normal -1.000000e+000 -5.782411e-017 0.000000e+000
      outer loop
         vertex 1.500000e+001 -1.500000e+001 3.250000e+001
         vertex 1.500000e+001 1.500000e+001 3.250000e+001
         vertex 1.500000e+001 -1.500000e+001 -3.250000e+001
      endloop
   endfacet
   facet normal -1.000000e+000 -5.782411e-017 0.000000e+000
      outer loop
         vertex 1.500000e+001 -1.500000e+001 -3.250000e+001
         vertex 1.500000e+001 1.500000e+001 3.250000e+001
         vertex 1.500000e+001 1.500000e+001 -3.250000e+001
      endloop
   endfacet
   facet normal 0.000000e+000 -1.000000e+000 0.000000e+000
      outer loop
         vertex 1.500000e+001 1.500000e+001 3.250000e+001
         vertex -1.500000e+001 1.500000e+001 3.250000e+001
         vertex 1.500000e+001 1.500000e+001 -3.250000e+001
      endloop
   endfacet
   facet normal 0.000000e+000 -1.000000e+000 0.000000e+000
      outer loop
         vertex 1.500000e+001 1.500000e+001 -3.250000e+001
         vertex -1.500000e+001 1.500000e+001 3.250000e+001
         vertex -1.500000e+001 1.500000e+001 -3.250000e+001
      endloop
   endfacet
   facet normal -1.982541e-016 1.000000e+000 0.000000e+000
      outer loop
         vertex 3.450000e+001 7.500000e+000 -3.250000e+001
         vertex 2.750000e+001 7.500000e+000 -3.250000e+001
         vertex 3.450000e+001 7.500000e+000 -1.750000e+001
      endloop
   endfacet
   facet normal -1.982541e-016 1.000000e+000 0.000000e+000
      outer loop
         vertex 3.450000e+001 7.500000e+000 -1.750000e+001
         vertex 2.750000e+001 7.500000e+000 -3.250000e+001
         vertex 2.750000e+001 7.500000e+000 -1.750000e+001
      endloop
   endfacet
   facet normal 6.878321e-032 -3.469447e-016 1.000000e+000
      outer loop
         vertex 2.750000e+001 7.500000e+000 -1.750000e+001
         vertex 2.750000e+001 -1.250000e+001 -1.750000e+001
         vertex 3.450000e+001 -1.250000e+001 -1.750000e+001
      endloop
   endfacet
   facet normal 6.878321e-032 -3.469447e-016 1.000000e+000
      outer loop
         vertex 3.750000e+001 -9.500000e+000 -1.750000e+001
         vertex 3.750000e+001 4.500000e+000 -1.750000e+001
         vertex 3.450000e+001 -1.250000e+001 -1.750000e+001
      endloop
   endfacet
   facet normal 6.878321e-032 -3.469447e-016 1.000000e+000
      outer loop
         vertex 3.450000e+001 -1.250000e+001 -1.750000e+001
         vertex 3.750000e+001 4.500000e+000 -1.750000e+001
         vertex 3.450000e+001 7.500000e+000 -1.750000e+001
      endloop
   endfacet
   facet normal 6.878321e-032 -3.469447e-016 1.000000e+000
      outer loop
         vertex 3.450000e+001 -1.250000e+001 -1.750000e+001
         vertex 3.450000e+001 7.500000e+000 -1.750000e+001
         vertex 2.750000e+001 7.500000e+000 -1.750000e+001
      endloop
   endfacet
   facet normal 1.982541e-016 -1.000000e+000 -1.156482e-016
      outer loop
         vertex 3.450000e+001 -1.250000e+001 -1.750000e+001
         vertex 2.750000e+001 -1.250000e+001 -1.750000e+001
         vertex 3.450000e+001 -1.250000e+001 -3.250000e+001
      endloop
   endfacet
   facet normal 1.982541e-016 -1.000000e+000 -1.156482e-016
      outer loop
         vertex 3.450000e+001 -1.250000e+001 -3.250000e+001
         vertex 2.750000e+001 -1.250000e+001 -1.750000e+001
         vertex 2.750000e+001 -1.250000e+001 -3.250000e+001
      endloop
   endfacet
   facet normal 1.000000e+000 1.734723e-016 2.006177e-032
      outer loop
         vertex 3.750000e+001 -9.500000e+000 -2.950000e+001
         vertex 3.750000e+001 4.500000e+000 -2.950000e+001
         vertex 3.750000e+001 -9.500000e+000 -1.750000e+001
      endloop
   endfacet
   facet normal 1.000000e+000 1.734723e-016 2.006177e-032
      outer loop
         vertex 3.750000e+001 -9.500000e+000 -1.750000e+001
         vertex 3.750000e+001 4.500000e+000 -2.950000e+001
         vertex 3.750000e+001 4.500000e+000 -1.750000e+001
      endloop
   endfacet
   facet normal 7.071068e-001 7.071068e-001 1.418582e-032
      outer loop
         vertex 3.750000e+001 4.500000e+000 -2.950000e+001
         vertex 3.450000e+001 7.500000e+000 -3.250000e+001
         vertex 3.750000e+001 4.500000e+000 -1.750000e+001
      endloop
   endfacet
   facet normal 7.071068e-001 7.071068e-001 1.418582e-032
      outer loop
         vertex 3.750000e+001 4.500000e+000 -1.750000e+001
         vertex 3.450000e+001 7.500000e+000 -3.250000e+001
         vertex 3.450000e+001 7.500000e+000 -1.750000e+001
      endloop
   endfacet
   facet normal 7.071068e-001 1.226635e-016 -7.071068e-001
      outer loop
         vertex 3.750000e+001 -9.500000e+000 -2.950000e+001
         vertex 3.450000e+001 -1.250000e+001 -3.250000e+001
         vertex 3.750000e+001 4.500000e+000 -2.950000e+001
      endloop
   endfacet
   facet normal 7.071068e-001 1.226635e-016 -7.071068e-001
      outer loop
         vertex 3.750000e+001 4.500000e+000 -2.950000e+001
         vertex 3.450000e+001 -1.250000e+001 -3.250000e+001
         vertex 3.450000e+001 7.500000e+000 -3.250000e+001
      endloop
   endfacet
   facet normal 7.071068e-001 -7.071068e-001 -8.177566e-017
      outer loop
         vertex 3.450000e+001 -1.250000e+001 -3.250000e+001
         vertex 3.750000e+001 -9.500000e+000 -2.950000e+001
         vertex 3.450000e+001 -1.250000e+001 -1.750000e+001
      endloop
   endfacet
   facet normal 7.071068e-001 -7.071068e-001 -8.177566e-017
      outer loop
         vertex 3.450000e+001 -1.250000e+001 -1.750000e+001
         vertex 3.750000e+001 -9.500000e+000 -2.950000e+001
         vertex 3.750000e+001 -9.500000e+000 -1.750000e+001
      endloop
   endfacet
endsolid